Coordinates
version=1
nRows=11
nColumns=63
inDegrees=yes

Units are S.I. units (second, meters, Newtons, ...)
If the header above contains a line with 'inDegrees', this indicates whether rotational values are in degrees (yes) or radians (no).

endheader
time	pelvis_tilt	pelvis_list	pelvis_rotation	pelvis_tx	pelvis_ty	pelvis_tz	hip_flexion_r	hip_adduction_r	hip_rotation_r	knee_angle_r	knee_angle_r_beta	ankle_angle_r	subtalar_angle_r	mtp_angle_r	hip_flexion_l	hip_adduction_l	hip_rotation_l	knee_angle_l	knee_angle_l_beta	ankle_angle_l	subtalar_angle_l	mtp_angle_l	L5_S1_Flex_Ext	L5_S1_Lat_Bending	L5_S1_axial_rotation	L4_L5_Flex_Ext	L4_L5_Lat_Bending	L4_L5_axial_rotation	L3_L4_Flex_Ext	L3_L4_Lat_Bending	L3_L4_axial_rotation	L2_L3_Flex_Ext	L2_L3_Lat_Bending	L2_L3_axial_rotation	L1_L2_Flex_Ext	L1_L2_Lat_Bending	L1_L2_axial_rotation	L1_T12_Flex_Ext	L1_T12_Lat_Bending	L1_T12_axial_rotation	Abs_r3	Abs_r2	Abs_r1	Abs_t1	Abs_t2	neck_flexion	neck_bending	neck_rotation	arm_flex_r	arm_add_r	arm_rot_r	elbow_flex_r	pro_sup_r	wrist_flex_r	wrist_dev_r	arm_flex_l	arm_add_l	arm_rot_l	elbow_flex_l	pro_sup_l	wrist_flex_l	wrist_dev_l
      3.30508475	      0.65363729	     -0.28412914	    102.80772876	      0.14089252	      1.08697206	      0.01353916	     -5.35510698	      2.02798874	     -1.76034279	      7.23133011	      0.12621052	     31.05698919	    -13.26194676	      0.00000000	     -3.70213841	     -0.63919342	     14.67184336	      5.99761183	      0.10467807	     33.24892852	     -2.40260858	      0.00000000	      0.08533785	      0.46172855	     -1.68751801	      0.15848091	      0.61409897	     -1.79298789	      0.14020155	      1.12264680	     -1.79298789	      0.09753262	      1.12264680	     -1.47657826	      0.07924472	      0.94155686	     -1.37110839	      0.04876204	      0.71521753	     -1.26563851	      0.60955970	      5.22316573	     -9.38546894	      0.00000000	      0.00000000	     17.94889877	      1.44307092	     23.81568598	     11.66403952	    -10.37264704	     56.58257242	     21.27652982	     65.54559904	    -10.43608028	      2.38740541	     16.09208289	     -6.00601328	     81.62019386	     20.67863192	     68.75824664	    -21.17688364	     -3.43233861
      3.32203390	      0.85631093	     -0.22025895	    102.29145052	      0.14205956	      1.08683326	      0.01219283	     -5.53700474	      2.26226254	     -1.01529653	      6.89261777	      0.12029887	     31.21267398	    -13.42408097	      0.00000000	     -3.91139910	     -0.87920306	     14.88046801	      6.00074613	      0.10473278	     33.02046303	     -2.92443706	      0.00000000	      0.07694111	      0.48766946	     -1.66078463	      0.14288734	      0.64860038	     -1.76458367	      0.12640655	      1.18571953	     -1.76458367	      0.08793600	      1.18571953	     -1.45318655	      0.07144752	      0.99445556	     -1.34938751	      0.04396415	      0.75539999	     -1.24558847	      0.54958267	      5.51661447	     -9.23678588	      0.00000000	      0.00000000	     18.45671196	      1.94542137	     24.55542954	     10.59339358	    -11.19565174	     58.07742373	     19.88414048	     67.07240931	    -11.56598929	      0.84653943	     15.75667025	     -6.36896265	     85.29243932	     18.42215763	     70.10729583	    -20.27873598	     -1.17222029
      3.33898305	      0.90774041	     -0.11491966	    101.65277076	      0.14385770	      1.08708584	      0.01132335	     -5.68507078	      2.35620824	      0.12645145	      6.62423988	      0.11561480	     31.24689015	    -13.99127912	      0.00000000	     -4.26416324	     -0.90357716	     16.85192314	      5.80223931	      0.10126818	     32.11304191	     -5.92105129	      0.00000000	      0.05799590	      0.48514091	     -1.56228279	      0.10770418	      0.64523740	     -1.65992546	      0.09528146	      1.17957160	     -1.65992546	      0.06628351	      1.17957160	     -1.36699744	      0.05385499	      0.98929933	     -1.26935476	      0.03313886	      0.75148326	     -1.17171209	      0.41425890	      5.48801095	     -8.68894818	      0.00000000	      0.00000000	     18.69704052	      2.01426021	     24.51747517	     10.31959632	    -11.90941476	     67.70110893	     17.55364360	     59.99104823	    -12.27990656	     -1.14170089	     18.36363256	     -5.86913563	    118.71138844	     15.70724334	     40.96996433	    -19.68465219	     -2.55663192
      3.35593220	      0.96967615	     -0.12337763	    101.03913832	      0.14521505	      1.08704125	      0.01002586	     -5.77332752	      2.38248682	      0.73011424	      6.27964529	      0.10960049	     31.45365009	    -13.82916074	      0.00000000	     -4.42562568	     -0.96340091	     17.44867620	      5.70715734	      0.09960869	     31.82252743	     -6.64722511	      0.00000000	      0.05161976	      0.48692038	     -1.48611154	      0.09586307	      0.64760411	     -1.57899351	      0.08480611	      1.18389822	     -1.57899351	      0.05899623	      1.18389822	     -1.30034760	      0.04793411	      0.99292804	     -1.20746563	      0.02949553	      0.75423967	     -1.11458366	      0.36871482	      5.50814074	     -8.26530655	      0.00000000	      0.00000000	     18.93394047	      2.11916546	     25.06497190	      9.01743663	    -12.51679982	     70.04615287	     16.07670818	     60.83721993	    -11.62212956	     -0.30121870	     17.13083780	     -6.38257952	    122.29586314	     13.46916373	     43.69333154	    -15.19071317	      0.03911157
      3.37288136	      0.69277333	     -0.18747147	    100.61867249	      0.14692789	      1.08721727	      0.00848758	     -5.89322599	      2.11267543	      1.16261160	      5.95113733	      0.10386694	     31.52514963	    -13.84700123	      0.00000000	     -4.68979578	     -0.66045206	     19.93149033	      5.32602559	      0.09295668	     30.82013365	     -9.71401054	      0.00000000	      0.04757728	      0.43370863	     -1.35622184	      0.08835576	      0.57683247	     -1.44098571	      0.07816471	      1.05451915	     -1.44098571	      0.05437607	      1.05451915	     -1.18669411	      0.04418026	      0.88441863	     -1.10193025	      0.02718566	      0.67181466	     -1.01716638	      0.33983973	      4.90619872	     -7.54289902	      0.00000000	      0.00000000	     19.13120630	      1.99184295	     24.77853100	     10.08567277	     -9.19263717	    134.19933341	      4.62538747	      6.44116583	     -3.74861132	     -3.47730643	     16.04652520	     -6.32432330	    137.55324700	     10.33107350	     34.31497539	     -9.91388369	      0.31324558
      3.38983051	      0.59940705	     -0.20857296	    100.16182902	      0.14764533	      1.08683104	      0.00719137	     -5.99489966	      1.96533857	      1.51815257	      5.72280968	      0.09988187	     31.57917996	    -13.67479578	      0.00000000	     -4.83939426	     -0.56176747	     20.26359741	      5.04112554	      0.08798424	     30.86288341	     -9.92916214	      0.00000000	      0.04026880	      0.41727188	     -1.30605025	      0.07478320	      0.55497160	     -1.38767839	      0.06615762	      1.01455484	     -1.38767839	      0.04602322	      1.01455484	     -1.14279397	      0.03739361	      0.85090081	     -1.06116583	      0.02300960	      0.64635414	     -0.97953769	      0.28763605	      4.72026293	     -7.26385969	      0.00000000	      0.00000000	     19.17208233	      1.78245263	     25.00574329	      8.77473359	    -10.07133626	    133.63089831	      5.16849905	      6.47026542	     -3.12721717	     -0.66036968	     13.70088391	     -7.18279948	    138.61082491	      8.25719761	     35.49845522	     -7.04354373	      0.55467924
      3.40677966	      0.38028628	     -0.28722968	     99.62972075	      0.14850708	      1.08624944	      0.00629351	     -5.96609700	      1.67214949	      2.01001325	      5.67836783	      0.09910621	     31.65211276	    -13.54385241	      0.00000000	     -4.90392553	     -0.30271274	     20.43187708	      4.76757826	      0.08320994	     30.85004847	    -10.40810792	      0.00000000	      0.03023936	      0.38309764	     -1.23956422	      0.05615751	      0.50951986	     -1.31703698	      0.04968024	      0.93146360	     -1.31703698	      0.03456056	      0.93146360	     -1.08461869	      0.02808027	      0.78121270	     -1.00714593	      0.01727877	      0.59341824	     -0.92967316	      0.21599670	      4.33367711	     -6.89408432	      0.00000000	      0.00000000	     19.25176630	      1.65201149	     25.06767851	      7.61399036	    -10.90678340	    131.59582303	      6.01587083	      5.93590045	     -2.74944264	      1.41106653	     11.21832629	     -8.26739099	    137.93907857	      6.35270237	     34.76058426	     -3.65199188	     -0.67813754
      3.42372881	      0.05307178	     -0.45509631	     99.08956632	      0.14927920	      1.08553225	      0.00584302	     -5.79329715	      1.27743521	      2.98348114	      5.77021776	      0.10070930	     31.61650329	    -14.05238711	      0.00000000	     -4.85326324	      0.11036757	     20.49842882	      4.52708991	      0.07901262	     30.69059336	    -11.22269129	      0.00000000	      0.02377932	      0.33896666	     -1.17882788	      0.04416057	      0.45082566	     -1.25250462	      0.03906704	      0.82416354	     -1.25250462	      0.02717738	      0.82416354	     -1.03147439	      0.02208147	      0.69122081	     -0.95779765	      0.01358750	      0.52505936	     -0.88412091	      0.16985328	      3.83445865	     -6.55628700	      0.00000000	      0.00000000	     19.27840972	      1.64936315	     25.42330910	      6.34017750	    -12.04406389	    121.69656615	      7.71614508	     10.00471020	     -3.77458591	      2.34988696	      8.91762665	     -9.33671031	    139.38540000	      5.07227381	     30.56194668	     -1.58293657	     -1.68052190
      3.44067797	     -0.25879898	     -0.75187513	     98.46846949	      0.14999589	      1.08468573	      0.00582191	     -5.37859043	      0.85600340	      3.64133427	      6.04120809	      0.10543897	     31.76064645	    -13.93975556	      0.00000000	     -4.61422961	      0.53013695	     19.53802272	      4.37286334	      0.07632086	     30.76652571	    -11.06648047	      0.00000000	      0.02466215	      0.29867003	     -1.10935677	      0.04580008	      0.39723113	     -1.17869157	      0.04051744	      0.72618630	     -1.17869157	      0.02818637	      0.72618630	     -0.97068717	      0.02290127	      0.60904792	     -0.90135238	      0.01409195	      0.46263987	     -0.83201758	      0.17615926	      3.37861507	     -6.16990955	      0.00000000	      0.00000000	     19.40824451	      1.75960227	     26.10343467	      5.26975230	    -12.71419755	    120.11536725	      8.21705168	      9.09592908	     -4.25612835	      2.54152723	      6.90356425	    -10.30438870	    139.75914815	      4.32110564	     30.64446806	     -0.75218477	     -2.50546789
      3.45762712	     -0.50186417	     -1.09340567	     97.84159113	      0.15070410	      1.08386883	      0.00622539	     -4.83803403	      0.55314696	      5.19903840	      6.41566732	      0.11197452	     31.83590987	    -14.71787575	      0.00000000	     -4.15812987	      0.81587061	     15.61775361	      4.50755516	      0.07867168	     31.86679883	     -7.04266172	      0.00000000	      0.02463774	      0.27040568	     -0.99816101	      0.04575475	      0.35963955	     -1.06054607	      0.04047735	      0.65746436	     -1.06054607	      0.02815848	      0.65746436	     -0.87339089	      0.02287861	      0.55141126	     -0.81100582	      0.01407801	      0.41885839	     -0.74862076	      0.17598493	      3.05888309	     -5.55147210	      0.00000000	      0.00000000	     19.58580857	      2.03746013	     27.08989474	      3.87383375	    -13.46450669	    113.10378857	      8.72672429	     12.83162365	     -5.15520393	      1.97178657	      5.66813045	    -10.94359809	    142.76090020	      4.00302361	     34.97801265	     -0.21306208	     -2.59918826
      3.47457627	     -0.63554208	     -1.47630841	     97.20391445	      0.15133031	      1.08326860	      0.00704796	     -4.20508537	      0.35368920	      6.39412531	      6.77987624	      0.11833116	     31.96098218	    -14.97099717	      0.00000000	     -3.66462743	      1.00046838	     12.18073779	      4.62529461	      0.08072662	     32.68008699	     -3.87935799	      0.00000000	      0.03082931	      0.25431620	     -0.84741031	      0.05725312	      0.33824054	     -0.90037346	      0.05064948	      0.61834440	     -0.90037346	      0.03523482	      0.61834440	     -0.74148402	      0.02862810	      0.51860159	     -0.68852088	      0.01761587	      0.39393579	     -0.63555773	      0.22021069	      2.87687568	     -4.71304193	      0.00000000	      0.00000000	     20.01343149	      2.10219302	     27.69131190	      2.63118544	    -13.94090299	    109.96118765	      8.63723138	     14.54977507	     -5.58425665	      1.19129115	      5.06591328	    -11.27572089	    145.56470172	      4.15567358	     44.01019760	      0.16237956	     -2.04747974
